<svg width="22" height="19" viewBox="0 0 22 19" fill="none" xmlns="http://www.w3.org/2000/svg">
<mask id="mask0_96_531" style="mask-type:luminance" maskUnits="userSpaceOnUse" x="5" y="4" width="12" height="11">
<path d="M16.0934 4.0918H5.9248V14.7929H16.0934V4.0918Z" fill="white"/>
</mask>
<g mask="url(#mask0_96_531)">
<path d="M6.53716 7.35229C6.14687 8.05013 5.9248 8.84927 5.9248 9.69907C5.9248 10.5489 6.14687 11.3487 6.53716 12.0466V7.35229Z" fill="#484B51"/>
<path d="M11.0093 4.76807C10.5968 4.76807 10.1966 4.81724 9.8125 4.9065V5.68253C10.1928 5.5768 10.5938 5.51877 11.0093 5.51877C13.3894 5.51877 15.3192 7.38458 15.3192 9.6866C15.3192 10.7233 14.9267 11.6714 14.2789 12.4007L14.1561 12.8261L13.8842 13.7676C15.2185 12.879 16.0943 11.3887 16.0943 9.70037C16.0936 6.97567 13.8174 4.76807 11.0093 4.76807Z" fill="#484B51"/>
<path d="M9.8125 12.2582H13.7122H13.7974C14.4574 11.5894 14.8639 10.6838 14.8639 9.68643C14.8639 7.62784 13.1385 5.95947 11.0096 5.95947C10.5916 5.95947 10.1898 6.02513 9.81275 6.1434V12.2582H9.8125Z" fill="#484B51"/>
<path d="M9.35123 4.0918H6.4502L6.998 5.19486V13.6906L6.4502 14.7929H13.1079L13.7117 12.7053H9.35123V4.0918Z" fill="#484B51"/>
</g>
</svg>
